<svg xmlns="http://www.w3.org/2000/svg" xmlns:xlink="http://www.w3.org/1999/xlink" viewBox="0 0 38.6 35.81"><defs><style>.cls-1{fill:url(#linear-gradient);}.cls-2{fill:url(#linear-gradient-2);}.cls-3{fill:url(#linear-gradient-3);}.cls-4{fill:url(#linear-gradient-4);}</style><linearGradient id="linear-gradient" y1="25.37" x2="19.34" y2="25.37" gradientUnits="userSpaceOnUse"><stop offset="0" stop-color="#983059"/><stop offset="0.35" stop-color="#983059" stop-opacity="0.98"/><stop offset="0.57" stop-color="#983059" stop-opacity="0.93"/><stop offset="0.75" stop-color="#983059" stop-opacity="0.83"/><stop offset="0.91" stop-color="#983059" stop-opacity="0.7"/><stop offset="1" stop-color="#983059" stop-opacity="0.6"/></linearGradient><linearGradient id="linear-gradient-2" y1="179.12" x2="19.34" y2="179.12" gradientTransform="matrix(1, 0, 0, -1, 0, 187.5)" xlink:href="#linear-gradient"/><linearGradient id="linear-gradient-3" x1="-1167.38" y1="-458.21" x2="-1148.04" y2="-458.21" gradientTransform="matrix(-0.71, -0.71, -0.71, 0.71, -1121.97, -464.73)" xlink:href="#linear-gradient"/><linearGradient id="linear-gradient-4" x1="-1167.38" y1="662.71" x2="-1148.04" y2="662.71" gradientTransform="translate(-1254.55 -332.15) rotate(-135)" xlink:href="#linear-gradient"/></defs><g id="Layer_2" data-name="Layer 2"><g id="Layer_1-2" data-name="Layer 1"><path class="cls-1" d="M9.67,33.75,19.34,17H0A11.17,11.17,0,0,1,9.67,33.75Z"/><path class="cls-2" d="M9.67,0l9.67,16.75H0A11.17,11.17,0,0,0,9.67,0Z"/><path class="cls-3" d="M14.74,35.81l5-18.68L33.42,30.8A11.16,11.16,0,0,0,14.74,35.81Z"/><path class="cls-4" d="M38.6,11.94,19.92,17,33.6,30.62A11.17,11.17,0,0,1,38.6,11.94Z"/></g></g></svg>