<svg xmlns="http://www.w3.org/2000/svg" xmlns:xlink="http://www.w3.org/1999/xlink" viewBox="0 0 100 92.76"><defs><style>.cls-1{fill:url(#linear-gradient);}.cls-2{fill:url(#linear-gradient-2);}.cls-3{fill:url(#linear-gradient-3);}.cls-4{fill:url(#linear-gradient-4);}</style><linearGradient id="linear-gradient" y1="65.73" x2="50.1" y2="65.73" gradientUnits="userSpaceOnUse"><stop offset="0" stop-color="#983059"/><stop offset="0.35" stop-color="#983059" stop-opacity="0.98"/><stop offset="0.57" stop-color="#983059" stop-opacity="0.93"/><stop offset="0.75" stop-color="#983059" stop-opacity="0.83"/><stop offset="0.91" stop-color="#983059" stop-opacity="0.7"/><stop offset="1" stop-color="#983059" stop-opacity="0.6"/></linearGradient><linearGradient id="linear-gradient-2" y1="222.76" x2="50.1" y2="222.76" gradientTransform="matrix(1, 0, 0, -1, 0, 244.45)" xlink:href="#linear-gradient"/><linearGradient id="linear-gradient-3" x1="-1167.06" y1="-417.79" x2="-1116.96" y2="-417.79" gradientTransform="matrix(-0.71, -0.71, -0.71, 0.71, -1049.42, -434.69)" xlink:href="#linear-gradient"/><linearGradient id="linear-gradient-4" x1="-1167.06" y1="706.28" x2="-1116.96" y2="706.28" gradientTransform="translate(-1222.28 -261.83) rotate(-135)" xlink:href="#linear-gradient"/></defs><g id="Layer_2" data-name="Layer 2"><g id="Layer_1-2" data-name="Layer 1"><path class="cls-1" d="M25.05,87.43,50.1,44H0A28.92,28.92,0,0,1,25.05,87.43Z"/><path class="cls-2" d="M25.05,0,50.1,43.39H0A28.92,28.92,0,0,0,25.05,0Z"/><path class="cls-3" d="M38.18,92.76l13-48.4L86.57,79.79A28.92,28.92,0,0,0,38.18,92.76Z"/><path class="cls-4" d="M100,30.94l-48.4,13L87,79.33A28.92,28.92,0,0,1,100,30.94Z"/></g></g></svg>

<svg xmlns="http://www.w3.org/2000/svg" xmlns:xlink="http://www.w3.org/1999/xlink" viewBox="0 0 100 92.76"><defs><linearGradient id="a" y1="65.73" x2="50.1" y2="65.73" gradientUnits="userSpaceOnUse"><stop offset="0" stop-color="#983059"/><stop offset=".35" stop-color="#983059" stop-opacity=".98"/><stop offset=".57" stop-color="#983059" stop-opacity=".93"/><stop offset=".75" stop-color="#983059" stop-opacity=".83"/><stop offset=".91" stop-color="#983059" stop-opacity=".7"/><stop offset="1" stop-color="#983059" stop-opacity=".6"/></linearGradient><linearGradient id="b" y1="222.76" x2="50.1" y2="222.76" gradientTransform="matrix(1 0 0 -1 0 244.45)" xlink:href="#a"/><linearGradient id="c" x1="-1167.06" y1="-417.79" x2="-1116.96" y2="-417.79" gradientTransform="scale(-1 1) rotate(-45 -.007 -1478.06)" xlink:href="#a"/><linearGradient id="d" x1="-1167.06" y1="706.28" x2="-1116.96" y2="706.28" gradientTransform="rotate(-135 -665.367 122.227)" xlink:href="#a"/></defs><g data-name="Layer 2"><g data-name="Layer 1"><path d="M25.05 87.43 50.1 44H0a28.92 28.92 0 0 1 25.05 43.43Z" style="fill:url(#a)"/><path d="M25.05 0 50.1 43.39H0A28.92 28.92 0 0 0 25.05 0Z" style="fill:url(#b)"/><path d="m38.18 92.76 13-48.4 35.39 35.43a28.92 28.92 0 0 0-48.39 12.97Z" style="fill:url(#c)"/><path d="m100 30.94-48.4 13L87 79.33a28.92 28.92 0 0 1 13-48.39Z" style="fill:url(#d)"/></g></g></svg>